<svg width="47" height="44" viewBox="0 0 47 44" fill="none" xmlns="http://www.w3.org/2000/svg">
<g clip-path="url(#clip0_121_460)">
<path d="M0 38.3266C0 41.4602 2.71333 44 6.06025 44H40.9396C44.287 44 47 41.4599 47 38.3266V5.67359C47 2.5398 44.2867 0 40.9398 0H6.06043C2.71296 0 0 2.54014 0 5.67342V38.3264V38.3266Z" fill="#563D7C"/>
<path d="M19.4899 19.4628V13.2318H25.3486C25.9067 13.2318 26.4447 13.2753 26.9628 13.3624C27.4809 13.4494 27.9393 13.6048 28.3379 13.8287C28.7363 14.0527 29.0552 14.3636 29.2944 14.7615C29.5334 15.1595 29.6531 15.6695 29.6531 16.2912C29.6531 17.4106 29.2944 18.2191 28.5769 18.7165C27.8596 19.2141 26.9429 19.4628 25.8269 19.4628H19.4899ZM13.2325 8.67969V35.3203H27.0226C28.298 35.3203 29.5402 35.1711 30.7492 34.8726C31.9582 34.574 33.0342 34.1139 33.9775 33.4921C34.9206 32.8702 35.6713 32.0679 36.2293 31.0855C36.7874 30.1029 37.0663 28.94 37.0663 27.5968C37.0663 25.9301 36.6345 24.5061 35.771 23.3246C34.9074 22.143 33.5988 21.3159 31.8451 20.8433C33.1205 20.2713 34.0838 19.5374 34.7348 18.6419C35.3857 17.7464 35.7112 16.6272 35.7112 15.2838C35.7112 14.0401 35.492 12.9955 35.0535 12.1497C34.6151 11.304 33.9973 10.6262 33.2002 10.1162C32.4032 9.60627 31.4467 9.23931 30.3306 9.01553C29.2147 8.79158 27.9791 8.67969 26.624 8.67969H13.2325ZM19.4899 30.7682V23.4551H26.3051C27.6602 23.4551 28.7497 23.7473 29.5735 24.332C30.3971 24.9165 30.809 25.8928 30.809 27.2609C30.809 27.9575 30.6827 28.5295 30.4303 28.9773C30.1779 29.425 29.8391 29.7796 29.4139 30.0407C28.9889 30.3019 28.4972 30.4884 27.9393 30.6005C27.3812 30.7122 26.7968 30.7682 26.1856 30.7682H19.4899Z" fill="white"/>
</g>
<defs>
<clipPath id="clip0_121_460">
<rect width="47" height="44" fill="white"/>
</clipPath>
</defs>
</svg>
