<svg width="49" height="58" viewBox="0 0 49 58" fill="none" xmlns="http://www.w3.org/2000/svg">
<path d="M9.03743 49.3018L5.59671 3.625H43.4033L39.958 49.2946L24.477 54.375L9.03743 49.3018Z" fill="#E44F26"/>
<path d="M24.5 50.4926L37.0103 46.3873L39.9534 7.36057H24.5V50.4926Z" fill="#F1662A"/>
<path d="M24.5 24.3002H18.2372L17.8054 18.5636H24.5V12.9612H12.6328L12.7461 14.4656L13.9083 29.9026H24.5V24.3002ZM24.5 38.8491L24.4786 38.8564L19.208 37.1726L18.8711 32.7047H14.1197L14.7827 41.499L24.4786 44.6854L24.5 44.6781V38.8491Z" fill="#EBEBEB"/>
<path d="M24.4832 24.3002V29.9026H30.3111L29.7629 37.1689L24.4832 38.8546V44.6836L34.1867 41.499L34.2571 40.5529L35.3688 25.8046L35.4852 24.3002H24.4832ZM24.4832 12.9612V18.5636H35.9155L36.0104 17.3057L36.2263 14.4656L36.3396 12.9612H24.4832Z" fill="white"/>
</svg>
