<svg width="52" height="51" viewBox="0 0 52 51" fill="none" xmlns="http://www.w3.org/2000/svg">
<g clip-path="url(#clip0_121_458)">
<path d="M42.7532 16.5133C42.1998 16.3042 41.6418 16.1105 41.0796 15.9323C41.174 15.5073 41.261 15.0875 41.3381 14.675C42.6051 7.90164 41.7769 2.44486 38.9478 0.648228C36.2353 -1.07414 31.7992 0.72182 27.319 5.01589C26.8775 5.43984 26.4457 5.87602 26.0242 6.32399C25.742 6.0261 25.4548 5.734 25.1628 5.44782C20.4674 0.856479 15.7609 -1.07861 12.9349 0.723163C10.2248 2.4509 9.42233 7.58065 10.563 13.9999C10.6765 14.6357 10.8046 15.2682 10.9473 15.8968C10.2811 16.1053 9.63824 16.3271 9.02302 16.5634C3.51798 18.6772 0.00238037 21.9897 0.00238037 25.4257C0.00238037 28.9745 3.77654 32.534 9.51028 34.6923C9.97513 34.8666 10.4438 35.028 10.916 35.1766C10.7627 35.8536 10.6265 36.5352 10.5077 37.2206C9.4203 43.5285 10.2695 48.537 12.9723 50.2538C15.7638 52.0267 20.4491 50.2046 25.0111 45.8125C25.381 45.4555 25.7428 45.0883 26.0961 44.7113C26.5526 45.1964 27.0213 45.6674 27.5016 46.1237C31.9208 50.3115 36.2852 52.0025 38.9853 50.2811C41.7742 48.503 42.6807 43.1225 41.5039 36.5764C41.4112 36.0635 41.3072 35.5532 41.1921 35.0459C41.5211 34.9386 41.8441 34.8281 42.1589 34.7131C48.1197 32.5382 51.9981 29.0219 51.9981 25.4257C51.9981 21.9772 48.3689 18.6423 42.7532 16.5133ZM41.4604 32.3913C41.1761 32.4948 40.8844 32.5948 40.587 32.6921C39.929 30.3978 39.041 27.9583 37.9542 25.4376C38.9912 22.9771 39.8451 20.5686 40.4847 18.2893C41.0166 18.4589 41.5327 18.6376 42.0303 18.8261C46.842 20.6505 49.7769 23.3475 49.7769 25.4257C49.7769 27.6393 46.6072 30.513 41.4604 32.3913ZM39.3249 37.0515C39.8453 39.946 39.9194 42.5631 39.5748 44.6091C39.2652 46.4476 38.6425 47.6731 37.8723 48.1641C36.2338 49.2087 32.7296 47.851 28.9504 44.2693C28.5036 43.8451 28.0676 43.4072 27.643 42.9563C29.1082 41.1917 30.5724 39.1403 32.0015 36.8618C34.5151 36.6162 36.8899 36.2145 39.0434 35.6662C39.1472 36.1255 39.241 36.5874 39.3249 37.0515ZM17.7288 47.9836C16.128 48.6061 14.8528 48.624 14.082 48.1346C12.4419 47.0929 11.7601 43.0713 12.6901 37.6769C12.8007 37.0395 12.9273 36.4055 13.0698 35.7758C15.1995 36.2948 17.557 36.6679 20.0766 36.8929C21.5154 39.1224 23.0218 41.1715 24.5401 42.9659C24.2174 43.3098 23.8871 43.6448 23.5495 43.9707C21.532 45.9127 19.5105 47.2906 17.7288 47.9836ZM10.2289 32.3776C7.69348 31.4231 5.59964 30.1828 4.16447 28.8293C2.87474 27.6131 2.22377 26.4055 2.22377 25.4257C2.22377 23.3405 5.04637 20.6809 9.75421 18.8733C10.3256 18.6541 10.9235 18.4472 11.544 18.2531C12.1948 20.5839 13.0482 23.0209 14.0782 25.4852C13.0348 27.986 12.1692 30.462 11.5121 32.8203C11.0811 32.6843 10.6533 32.5367 10.2289 32.3776ZM12.743 13.53C11.7658 8.03025 12.4147 3.88158 14.0479 2.84033C15.7873 1.73131 19.6338 3.31253 23.688 7.27711C23.9524 7.53622 24.2125 7.80058 24.4682 8.07007C22.9575 9.85664 21.4648 11.8906 20.0388 14.1069C17.5934 14.3565 15.2526 14.7573 13.1004 15.2944C12.9678 14.7097 12.8486 14.1215 12.743 13.5302V13.53ZM35.1716 19.6294C34.6632 18.6624 34.1361 17.7076 33.5904 16.7656C35.2494 16.9966 36.8389 17.3033 38.3315 17.6782C37.8835 19.2601 37.3249 20.9138 36.6675 22.6093C36.1869 21.6051 35.6882 20.6116 35.1716 19.6294ZM26.0252 9.81839C27.0497 11.0408 28.0758 12.4055 29.085 13.8863C27.0377 13.7798 24.987 13.7794 22.9396 13.885C23.9499 12.4178 24.9847 11.0549 26.0252 9.81839ZM16.8201 19.6462C16.31 20.6205 15.8206 21.6078 15.3523 22.6073C14.7056 20.9178 14.1521 19.2565 13.7002 17.6523C15.1837 17.2868 16.7657 16.9879 18.4141 16.7611C17.8624 17.7088 17.3309 18.6707 16.8201 19.646V19.6462ZM18.4615 34.2644C16.7584 34.055 15.1526 33.7716 13.6695 33.416C14.1286 31.7831 14.6942 30.0864 15.3549 28.3607C15.8251 29.3609 16.3165 30.3488 16.8289 31.3236C17.3557 32.3257 17.9013 33.3072 18.4615 34.2644ZM26.0865 41.2053C25.0336 39.9545 23.9836 38.5705 22.9581 37.0821C23.9537 37.1251 24.9686 37.147 26.0002 37.147C27.06 37.147 28.1077 37.1208 29.1389 37.0703C28.1264 38.5855 27.1041 39.9715 26.0865 41.2053ZM36.6884 28.2726C37.3834 30.0173 37.9692 31.705 38.4343 33.3099C36.9268 33.6888 35.2991 33.9939 33.5841 34.2205C34.1337 33.2611 34.6658 32.2896 35.1803 31.3068C35.7034 30.3079 36.2062 29.2962 36.6884 28.2726ZM33.2563 30.0846C32.4687 31.5914 31.6368 33.0697 30.7619 34.5169C29.1772 34.6405 27.5889 34.7019 26.0002 34.701C24.3821 34.701 22.8082 34.6455 21.2926 34.5373C20.3949 33.0934 19.5471 31.6126 18.7511 30.098H18.7513C17.959 28.5916 17.219 27.0525 16.5327 25.4841C17.2172 23.9154 17.955 22.3756 18.7446 20.8679L18.7444 20.8682C19.5337 19.3601 20.3747 17.8857 21.2656 16.4479C22.8118 16.3191 24.3975 16.252 26 16.252H26.0002C27.6101 16.252 29.1978 16.3198 30.7436 16.4495C31.6255 17.8851 32.4612 19.3545 33.249 20.855C34.0412 22.3593 34.7887 23.8916 35.4905 25.4494C34.7959 27.0232 34.0507 28.5693 33.2563 30.0846ZM37.8384 2.76741C39.5794 3.87331 40.2566 8.3329 39.1627 14.1811C39.0928 14.5542 39.0144 14.9343 38.9291 15.3197C36.7717 14.7712 34.4292 14.3634 31.9767 14.11C30.548 11.8693 29.0676 9.83225 27.5814 8.06873C27.9709 7.65525 28.3697 7.25249 28.7773 6.86083C32.6161 3.1819 36.2038 1.72929 37.8384 2.76741ZM26.0002 20.3123C28.5645 20.3123 30.6433 22.6017 30.6433 25.4257C30.6433 28.2497 28.5645 30.5392 26.0002 30.5392C23.436 30.5392 21.3572 28.2497 21.3572 25.4257C21.3572 22.6017 23.436 20.3123 26.0002 20.3123Z" fill="#00D8FF"/>
</g>
<defs>
<clipPath id="clip0_121_458">
<rect width="52" height="51" fill="white"/>
</clipPath>
</defs>
</svg>
