<svg width="56" height="56" viewBox="0 0 56 56" fill="none" xmlns="http://www.w3.org/2000/svg">
<path d="M50.7676 8.8025L40.677 3.94449C40.1072 3.66974 39.466 3.57907 38.8423 3.68506C38.2187 3.79104 37.6434 4.08843 37.1963 4.53599L4.16505 34.65C3.76428 35.0136 3.52439 35.5216 3.49813 36.0621C3.47188 36.6027 3.66142 37.1315 4.02505 37.5322C4.0688 37.5795 4.11255 37.625 4.1598 37.667L6.85655 40.117C7.20894 40.4377 7.66252 40.6249 8.13854 40.646C8.61455 40.6671 9.08292 40.5208 9.4623 40.2325L49.2486 10.0625C49.5491 9.83446 49.9073 9.69483 50.2828 9.65932C50.6584 9.62382 51.0364 9.69386 51.3744 9.86155C51.7123 10.0292 51.9967 10.2879 52.1956 10.6085C52.3944 10.929 52.4999 11.2988 52.5 11.676V11.5587C52.5 10.9828 52.3374 10.4186 52.0309 9.93101C51.7244 9.44341 51.2865 9.05224 50.7676 8.8025Z" fill="#0065A9"/>
<path d="M50.7676 47.1975L40.677 52.0573C40.107 52.3312 39.466 52.4215 38.8425 52.3155C38.219 52.2096 37.6438 51.9127 37.1963 51.4658L4.16505 21.35C3.76428 20.9864 3.52439 20.4784 3.49813 19.9379C3.47188 19.3974 3.66142 18.8685 4.02505 18.4678C4.0688 18.4205 4.11255 18.375 4.1598 18.333L6.85655 15.883C7.20929 15.5609 7.66392 15.373 8.14111 15.3518C8.6183 15.3307 9.08775 15.4778 9.46755 15.7675L49.2486 45.9375C49.5491 46.1655 49.9073 46.3052 50.2828 46.3407C50.6584 46.3762 51.0364 46.3061 51.3744 46.1385C51.7123 45.9708 51.9967 45.7121 52.1956 45.3915C52.3944 45.071 52.4999 44.7013 52.5 44.324V44.45C52.4982 45.0244 52.3347 45.5867 52.0283 46.0725C51.7219 46.5584 51.285 46.9482 50.7676 47.1975Z" fill="#007ACC"/>
<path d="M40.677 52.0572C40.1069 52.3312 39.4659 52.4215 38.8424 52.3155C38.2189 52.2095 37.6437 51.9126 37.1962 51.4657C37.4475 51.7138 37.7664 51.8821 38.113 51.9497C38.4596 52.0172 38.8184 51.981 39.1444 51.8455C39.4705 51.7101 39.7493 51.4814 39.946 51.1881C40.1427 50.8948 40.2484 50.5501 40.25 50.197V5.80299C40.2503 5.44824 40.1453 5.10139 39.9483 4.80637C39.7513 4.51135 39.4711 4.28144 39.1434 4.14576C38.8156 4.01008 38.4549 3.97473 38.107 4.0442C37.7592 4.11367 37.4397 4.28482 37.1892 4.53599C37.6364 4.08858 38.2115 3.79118 38.8351 3.6849C39.4587 3.57862 40.0998 3.66872 40.67 3.94274L50.7587 8.79374C51.2793 9.04224 51.719 9.43287 52.0271 9.92056C52.3352 10.4083 52.4991 10.9731 52.5 11.55V44.45C52.5001 45.0264 52.3374 45.5911 52.0305 46.0791C51.7237 46.567 51.2853 46.9584 50.7657 47.208L40.677 52.0572Z" fill="#1F9CF0"/>
</svg>
